<?xml version="1.0" encoding="UTF-8"?>
<svg version="1.1" xmlns="http://www.w3.org/2000/svg" width="475" height="313">
<path d="M0 0 C4.55668307 1.65056245 4.55668307 1.65056245 9.30859375 2.48828125 C9.96859375 1.82828125 10.62859375 1.16828125 11.30859375 0.48828125 C13.93359375 0.36328125 13.93359375 0.36328125 16.30859375 0.48828125 C16.30859375 1.47828125 16.30859375 2.46828125 16.30859375 3.48828125 C14.82359375 3.98328125 14.82359375 3.98328125 13.30859375 4.48828125 C12.97859375 5.14828125 12.64859375 5.80828125 12.30859375 6.48828125 C20.62262936 8.31786693 28.58553799 5.79389337 36.24609375 2.42578125 C44.84197837 -1.21630623 59.28941674 -4.27850114 68.3203125 -0.71875 C69.99609375 0.30078125 69.99609375 0.30078125 72.30859375 2.48828125 C72.30859375 3.47828125 72.30859375 4.46828125 72.30859375 5.48828125 C71.24318359 5.76091797 71.24318359 5.76091797 70.15625 6.0390625 C69.23714844 6.29042969 68.31804687 6.54179687 67.37109375 6.80078125 C66.45457031 7.04441406 65.53804688 7.28804687 64.59375 7.5390625 C63.83964844 7.85230469 63.08554687 8.16554688 62.30859375 8.48828125 C61.97859375 9.47828125 61.64859375 10.46828125 61.30859375 11.48828125 C60.31859375 11.48828125 59.32859375 11.48828125 58.30859375 11.48828125 C58.30859375 10.82828125 58.30859375 10.16828125 58.30859375 9.48828125 C54.29682171 9.48828125 51.66078212 10.25348901 48.30859375 12.48828125 C45.63671875 12.6484375 45.63671875 12.6484375 42.55859375 12.55078125 C37.98653795 12.46755208 33.80079416 12.67151754 29.30859375 13.48828125 C29.30859375 14.14828125 29.30859375 14.80828125 29.30859375 15.48828125 C30.35466797 15.84986328 30.35466797 15.84986328 31.421875 16.21875 C34.8113233 17.70937341 37.51919192 19.60046251 40.49609375 21.80078125 C41.54152344 22.56003906 42.58695312 23.31929687 43.6640625 24.1015625 C46.34343392 26.51972489 47.32163736 28.0672361 48.30859375 31.48828125 C49.05109375 31.40578125 49.79359375 31.32328125 50.55859375 31.23828125 C54.09016402 31.55933309 55.07489739 32.84093742 57.30859375 35.48828125 C55.65859375 35.15828125 54.00859375 34.82828125 52.30859375 34.48828125 C52.7675 35.00777344 53.22640625 35.52726562 53.69921875 36.0625 C56.4066724 39.13966896 59.08510193 42.20438623 61.62109375 45.42578125 C63.14733133 47.57809 63.14733133 47.57809 65.30859375 48.48828125 C65.63859375 47.49828125 65.96859375 46.50828125 66.30859375 45.48828125 C66.96859375 45.48828125 67.62859375 45.48828125 68.30859375 45.48828125 C67.97859375 46.80828125 67.64859375 48.12828125 67.30859375 49.48828125 C66.64859375 49.48828125 65.98859375 49.48828125 65.30859375 49.48828125 C65.96859375 50.47828125 66.62859375 51.46828125 67.30859375 52.48828125 C68.42234375 51.77671875 68.42234375 51.77671875 69.55859375 51.05078125 C71.94497146 49.69488482 73.66955582 49.0342891 76.30859375 48.48828125 C76.96859375 48.15828125 77.62859375 47.82828125 78.30859375 47.48828125 C79.46359375 47.36453125 80.61859375 47.24078125 81.80859375 47.11328125 C82.96359375 46.90703125 84.11859375 46.70078125 85.30859375 46.48828125 C85.96859375 45.49828125 86.62859375 44.50828125 87.30859375 43.48828125 C84.66859375 43.81828125 82.02859375 44.14828125 79.30859375 44.48828125 C79.30859375 43.49828125 79.30859375 42.50828125 79.30859375 41.48828125 C81.30859375 40.48828125 81.30859375 40.48828125 84.30859375 40.48828125 C86.04282717 40.18240071 87.7719211 39.84655089 89.49609375 39.48828125 C90.39714844 39.30265625 91.29820312 39.11703125 92.2265625 38.92578125 C92.91363281 38.78140625 93.60070312 38.63703125 94.30859375 38.48828125 C94.63859375 37.49828125 94.96859375 36.50828125 95.30859375 35.48828125 C97.26953125 34.5390625 97.26953125 34.5390625 99.68359375 33.80078125 C100.47507812 33.54941406 101.2665625 33.29804687 102.08203125 33.0390625 C104.30859375 32.48828125 104.30859375 32.48828125 107.30859375 32.48828125 C107.30859375 31.82828125 107.30859375 31.16828125 107.30859375 30.48828125 C109.61859375 30.81828125 111.92859375 31.14828125 114.30859375 31.48828125 C114.63859375 33.13828125 114.96859375 34.78828125 115.30859375 36.48828125 C113.98859375 36.48828125 112.66859375 36.48828125 111.30859375 36.48828125 C112.51515625 37.66390625 112.51515625 37.66390625 113.74609375 38.86328125 C116.30859375 41.48828125 116.30859375 41.48828125 117.30859375 43.48828125 C117.96859375 43.48828125 118.62859375 43.48828125 119.30859375 43.48828125 C119.30859375 44.47828125 119.30859375 45.46828125 119.30859375 46.48828125 C120.21609375 46.94203125 121.12359375 47.39578125 122.05859375 47.86328125 C123.85867091 48.76331983 125.65492864 49.67163501 127.43359375 50.61328125 C129.29849622 51.57165386 129.29849622 51.57165386 131.43359375 51.92578125 C133.30859375 52.48828125 133.30859375 52.48828125 135.30859375 55.48828125 C134.97859375 56.14828125 134.64859375 56.80828125 134.30859375 57.48828125 C133.64859375 57.48828125 132.98859375 57.48828125 132.30859375 57.48828125 C131.21965262 60.71928422 131.36321527 62.24181215 132.80859375 65.30078125 C134.4677449 69.49110253 134.60837629 72.05372906 133.30859375 76.48828125 C127.97997213 86.89102317 127.97997213 86.89102317 124.30859375 89.48828125 C121.828125 89.34375 121.828125 89.34375 119.12109375 88.67578125 C117.76951172 88.35673828 117.76951172 88.35673828 116.390625 88.03125 C115.70355469 87.85207031 115.01648438 87.67289062 114.30859375 87.48828125 C114.30859375 88.47828125 114.30859375 89.46828125 114.30859375 90.48828125 C115.62859375 90.81828125 116.94859375 91.14828125 118.30859375 91.48828125 C118.19371627 93.07238119 118.06624867 94.65557088 117.93359375 96.23828125 C117.86398437 97.12 117.794375 98.00171875 117.72265625 98.91015625 C117.3046343 101.51293443 116.71977503 103.27071067 115.30859375 105.48828125 C113.18359375 106.23828125 113.18359375 106.23828125 111.30859375 106.48828125 C110.97859375 105.49828125 110.64859375 104.50828125 110.30859375 103.48828125 C107.80411859 102.26958196 107.80411859 102.26958196 105.30859375 101.48828125 C105.30859375 100.16828125 105.30859375 98.84828125 105.30859375 97.48828125 C102.99859375 97.15828125 100.68859375 96.82828125 98.30859375 96.48828125 C98.30859375 97.14828125 98.30859375 97.80828125 98.30859375 98.48828125 C92.89682904 102.48828125 92.89682904 102.48828125 90.30859375 102.48828125 C93.77359375 109.41828125 93.77359375 109.41828125 97.30859375 116.48828125 C102.94244481 116.48828125 104.73552074 116.25339516 109.30859375 113.48828125 C109.63859375 112.82828125 109.96859375 112.16828125 110.30859375 111.48828125 C109.64859375 111.15828125 108.98859375 110.82828125 108.30859375 110.48828125 C110.82181687 109.23166969 112.81777052 109.27260409 115.62109375 109.11328125 C120.04689623 108.75069925 122.62565817 108.0458754 126.30859375 105.48828125 C128.630659 104.78336858 130.96452443 104.11615696 133.30859375 103.48828125 C134.19546875 103.11703125 135.08234375 102.74578125 135.99609375 102.36328125 C138.30859375 101.48828125 138.30859375 101.48828125 142.30859375 101.48828125 C142.30859375 100.49828125 142.30859375 99.50828125 142.30859375 98.48828125 C145.77359375 97.99328125 145.77359375 97.99328125 149.30859375 97.48828125 C149.30859375 96.82828125 149.30859375 96.16828125 149.30859375 95.48828125 C153.2668661 95.43042478 157.22503045 95.39473408 161.18359375 95.36328125 C162.31152344 95.34652344 163.43945312 95.32976562 164.6015625 95.3125 C165.67792969 95.30605469 166.75429688 95.29960938 167.86328125 95.29296875 C168.85827637 95.28249512 169.85327148 95.27202148 170.87841797 95.26123047 C173.30859375 95.48828125 173.30859375 95.48828125 175.30859375 97.48828125 C176.29859375 97.48828125 177.28859375 97.48828125 178.30859375 97.48828125 C178.30859375 96.82828125 178.30859375 96.16828125 178.30859375 95.48828125 C178.96859375 95.48828125 179.62859375 95.48828125 180.30859375 95.48828125 C180.30859375 93.17828125 180.30859375 90.86828125 180.30859375 88.48828125 C182.91342324 87.54107053 184.61534076 87.18605732 187.19921875 88.3125 C188.93442248 89.3176485 190.62499798 90.39889575 192.30859375 91.48828125 C192.30859375 92.80828125 192.30859375 94.12828125 192.30859375 95.48828125 C192.96859375 95.81828125 193.62859375 96.14828125 194.30859375 96.48828125 C193.64859375 96.48828125 192.98859375 96.48828125 192.30859375 96.48828125 C192.30859375 97.14828125 192.30859375 97.80828125 192.30859375 98.48828125 C189.66859375 99.14828125 187.02859375 99.80828125 184.30859375 100.48828125 C183.97859375 101.80828125 183.64859375 103.12828125 183.30859375 104.48828125 C184.09234375 104.46765625 184.87609375 104.44703125 185.68359375 104.42578125 C188.30859375 104.48828125 188.30859375 104.48828125 190.30859375 105.48828125 C189.80255383 107.65702377 189.30875562 109.48795752 188.30859375 111.48828125 C188.96859375 111.48828125 189.62859375 111.48828125 190.30859375 111.48828125 C189.32296618 114.80357398 188.65411956 116.23777504 185.80859375 118.30078125 C183.30859375 119.48828125 183.30859375 119.48828125 181.30859375 119.48828125 C181.30859375 120.14828125 181.30859375 120.80828125 181.30859375 121.48828125 C179.32859375 122.47828125 179.32859375 122.47828125 177.30859375 123.48828125 C177.96859375 124.14828125 178.62859375 124.80828125 179.30859375 125.48828125 C179.30859375 126.47828125 179.30859375 127.46828125 179.30859375 128.48828125 C180.29859375 128.81828125 181.28859375 129.14828125 182.30859375 129.48828125 C179.64253426 130.28203987 176.97578208 131.07333196 174.30859375 131.86328125 C173.56480469 132.085 172.82101562 132.30671875 172.0546875 132.53515625 C157.66072169 136.79076353 157.66072169 136.79076353 151.30859375 136.48828125 C150.64859375 136.48828125 149.98859375 136.48828125 149.30859375 136.48828125 C149.63859375 138.13828125 149.96859375 139.78828125 150.30859375 141.48828125 C151.95859375 141.81828125 153.60859375 142.14828125 155.30859375 142.48828125 C155.30859375 143.47828125 155.30859375 144.46828125 155.30859375 145.48828125 C152.66859375 145.48828125 150.02859375 145.48828125 147.30859375 145.48828125 C148.02422641 147.50450455 148.02422641 147.50450455 149.30859375 149.48828125 C149.89640625 149.63265625 150.48421875 149.77703125 151.08984375 149.92578125 C153.86366662 150.62900395 155.71066742 151.92794982 158.05859375 153.55078125 C158.8578125 154.09863281 159.65703125 154.64648438 160.48046875 155.2109375 C161.08375 155.63246094 161.68703125 156.05398437 162.30859375 156.48828125 C161.97859375 157.14828125 161.64859375 157.80828125 161.30859375 158.48828125 C158.99859375 157.82828125 156.68859375 157.16828125 154.30859375 156.48828125 C153.97859375 157.47828125 153.64859375 158.46828125 153.30859375 159.48828125 C150.01711132 158.35328731 149.31260685 157.49544749 147.55859375 154.36328125 C147.14609375 153.41453125 146.73359375 152.46578125 146.30859375 151.48828125 C145.10203125 151.51921875 145.10203125 151.51921875 143.87109375 151.55078125 C141.30859375 151.48828125 141.30859375 151.48828125 140.30859375 150.48828125 C140.27765625 148.87953125 140.27765625 148.87953125 140.24609375 147.23828125 C139.7116382 143.51077344 139.7116382 143.51077344 137.46484375 141.984375 C136.00805992 141.12518031 134.5270745 140.30553057 133.0234375 139.53125 C132.45753906 139.18707031 131.89164062 138.84289062 131.30859375 138.48828125 C131.30859375 137.82828125 131.30859375 137.16828125 131.30859375 136.48828125 C122.59445069 135.8596056 115.49939472 137.57136644 107.30859375 140.48828125 C107.73269531 141.03871094 108.15679687 141.58914062 108.59375 142.15625 C117.37825209 154.60900571 123.01156234 170.64517628 121.94140625 185.9921875 C121.03530891 190.99809563 119.1760036 193.3745205 115.30859375 196.48828125 C114.75171875 197.29265625 114.19484375 198.09703125 113.62109375 198.92578125 C113.18796875 199.44140625 112.75484375 199.95703125 112.30859375 200.48828125 C111.31859375 200.48828125 110.32859375 200.48828125 109.30859375 200.48828125 C108.34111604 197.37576725 108.05156711 196.0081197 109.5234375 193.03125 C110.09191406 192.25394531 110.66039062 191.47664062 111.24609375 190.67578125 C111.81199219 189.88558594 112.37789063 189.09539062 112.9609375 188.28125 C113.40566406 187.68957031 113.85039062 187.09789062 114.30859375 186.48828125 C113.56222656 186.64167969 112.81585938 186.79507813 112.046875 186.953125 C108.81473227 187.58479911 105.57077333 188.04053111 102.30859375 188.48828125 C102.30859375 187.82828125 102.30859375 187.16828125 102.30859375 186.48828125 C99.99859375 186.81828125 97.68859375 187.14828125 95.30859375 187.48828125 C95.96859375 190.12828125 96.62859375 192.76828125 97.30859375 195.48828125 C96.64859375 195.48828125 95.98859375 195.48828125 95.30859375 195.48828125 C95.24671875 196.51953125 95.18484375 197.55078125 95.12109375 198.61328125 C94.34660578 202.3069931 94.10541942 203.05401273 91.74609375 205.61328125 C89.06478176 208.23139657 89.06478176 208.23139657 88.99609375 211.36328125 C89.09921875 212.06453125 89.20234375 212.76578125 89.30859375 213.48828125 C88.16390625 213.70484375 88.16390625 213.70484375 86.99609375 213.92578125 C84.22686467 214.45154065 84.22686467 214.45154065 81.30859375 215.48828125 C80.89609375 214.99328125 80.48359375 214.49828125 80.05859375 213.98828125 C78.18657037 212.05442033 78.18657037 212.05442033 74.30859375 212.48828125 C74.30859375 214.13828125 74.30859375 215.78828125 74.30859375 217.48828125 C72.98859375 217.15828125 71.66859375 216.82828125 70.30859375 216.48828125 C69.43460937 217.77798828 69.43460937 217.77798828 68.54296875 219.09375 C46.31130527 251.36002814 13.44557953 274.62500368 -25.2644043 282.38891602 C-67.33823132 289.94468128 -103.7449867 279.60680274 -139.69140625 258.48828125 C-139.69140625 259.14828125 -139.69140625 259.80828125 -139.69140625 260.48828125 C-140.68140625 260.48828125 -141.67140625 260.48828125 -142.69140625 260.48828125 C-142.58505859 259.35519531 -142.58505859 259.35519531 -142.4765625 258.19921875 C-142.44313142 255.45850315 -142.44313142 255.45850315 -144.125 253.65234375 C-148.08303481 250.61244957 -150.5996203 249.03228507 -155.69140625 249.61328125 C-157.03164452 249.87136767 -158.36874934 250.15149361 -159.69140625 250.48828125 C-159.69140625 251.14828125 -159.69140625 251.80828125 -159.69140625 252.48828125 C-160.32046875 252.58625 -160.94953125 252.68421875 -161.59765625 252.78515625 C-166.76718297 253.68826634 -171.02522698 254.91193366 -175.62890625 257.41796875 C-177.93270856 258.61350253 -180.27137957 259.55125873 -182.69140625 260.48828125 C-186.56391731 261.99558171 -190.23787025 263.69926522 -193.90234375 265.65625 C-195.69140625 266.48828125 -195.69140625 266.48828125 -197.69140625 266.95703125 C-199.94935849 267.55679981 -201.39581949 268.48088865 -203.31640625 269.80078125 C-211.14853801 274.82324493 -218.64575477 277.05897632 -227.87109375 277.62109375 C-232.99812917 278.02912771 -236.80827563 279.26754644 -241.42578125 281.51171875 C-244.44430604 282.81280702 -247.46940812 283.36281646 -250.68359375 283.984375 C-253.35049041 284.65369342 -255.39835479 286.00454207 -257.69140625 287.48828125 C-258.68140625 287.48828125 -259.67140625 287.48828125 -260.69140625 287.48828125 C-265.0773755 287.98347133 -269.37641949 288.5443779 -273.69140625 289.48828125 C-274.37890625 287.80078125 -274.37890625 287.80078125 -274.69140625 285.48828125 C-273.25390625 282.73828125 -273.25390625 282.73828125 -271.69140625 280.48828125 C-272.35140625 280.48828125 -273.01140625 280.48828125 -273.69140625 280.48828125 C-273.69140625 279.82828125 -273.69140625 279.16828125 -273.69140625 278.48828125 C-274.35140625 278.15828125 -275.01140625 277.82828125 -275.69140625 277.48828125 C-274.07545793 275.44708337 -272.40576805 273.44755188 -270.69140625 271.48828125 C-270.03140625 271.48828125 -269.37140625 271.48828125 -268.69140625 271.48828125 C-269.35140625 269.17828125 -270.01140625 266.86828125 -270.69140625 264.48828125 C-270.07265625 264.40578125 -269.45390625 264.32328125 -268.81640625 264.23828125 C-266.01635206 263.25002683 -265.95026693 262.0846814 -264.69140625 259.48828125 C-262.56640625 258.23828125 -262.56640625 258.23828125 -260.69140625 257.48828125 C-260.69140625 256.82828125 -260.69140625 256.16828125 -260.69140625 255.48828125 C-262.01140625 254.82828125 -263.33140625 254.16828125 -264.69140625 253.48828125 C-263.59388395 250.49503862 -263.01457733 249.64217224 -260.06640625 248.23828125 C-258.89078125 247.86703125 -258.89078125 247.86703125 -257.69140625 247.48828125 C-257.69140625 246.82828125 -257.69140625 246.16828125 -257.69140625 245.48828125 C-257.03140625 245.48828125 -256.37140625 245.48828125 -255.69140625 245.48828125 C-255.69140625 244.49828125 -255.69140625 243.50828125 -255.69140625 242.48828125 C-253.9765625 240.953125 -253.9765625 240.953125 -251.75390625 239.42578125 C-248.69862468 237.4186999 -248.69862468 237.4186999 -246.69140625 234.48828125 C-244.9594802 233.50794575 -243.22622227 232.52971348 -241.48046875 231.57421875 C-239.19347536 230.18604372 -237.46690245 228.47683699 -235.69140625 226.48828125 C-236.68140625 225.49828125 -236.68140625 225.49828125 -237.69140625 224.48828125 C-234.78874844 222.06939974 -232.08258114 220.12917233 -228.69140625 218.48828125 C-228.15902344 218.03324219 -227.62664062 217.57820312 -227.078125 217.109375 C-223.79197632 214.87737549 -220.32245852 213.84177377 -216.56640625 212.61328125 C-210.63314394 210.61110523 -205.06920666 208.41535534 -199.57421875 205.37109375 C-197.69140625 204.48828125 -197.69140625 204.48828125 -194.69140625 204.48828125 C-194.69140625 203.49828125 -194.69140625 202.50828125 -194.69140625 201.48828125 C-193.70140625 201.15828125 -192.71140625 200.82828125 -191.69140625 200.48828125 C-196.70391656 200.98953228 -200.24981647 202.16654114 -204.69140625 204.48828125 C-205.68140625 204.48828125 -206.67140625 204.48828125 -207.69140625 204.48828125 C-207.69140625 203.82828125 -207.69140625 203.16828125 -207.69140625 202.48828125 C-206.78777344 202.00617188 -205.88414062 201.5240625 -204.953125 201.02734375 C-203.76167608 200.3894026 -202.57027219 199.75137735 -201.37890625 199.11328125 C-200.78400391 198.79617187 -200.18910156 198.4790625 -199.57617188 198.15234375 C-196.85774737 196.69441776 -194.26073071 195.20116422 -191.69140625 193.48828125 C-191.89636719 192.82441406 -192.10132813 192.16054687 -192.3125 191.4765625 C-192.58191406 190.59355469 -192.85132813 189.71054688 -193.12890625 188.80078125 C-193.39574219 187.93066406 -193.66257812 187.06054688 -193.9375 186.1640625 C-194.65485154 183.61802204 -195.20894725 181.08793895 -195.69140625 178.48828125 C-200.14640625 179.47828125 -200.14640625 179.47828125 -204.69140625 180.48828125 C-205.02140625 179.82828125 -205.35140625 179.16828125 -205.69140625 178.48828125 C-206.24828125 178.67390625 -206.80515625 178.85953125 -207.37890625 179.05078125 C-209.69140625 179.48828125 -209.69140625 179.48828125 -211.94140625 178.86328125 C-218.95450208 177.90695 -227.62558343 183.53730309 -233.44140625 187.23828125 C-235.69140625 188.48828125 -235.69140625 188.48828125 -239.69140625 188.48828125 C-239.18536633 186.31953873 -238.69156812 184.48860498 -237.69140625 182.48828125 C-238.45453125 182.69453125 -239.21765625 182.90078125 -240.00390625 183.11328125 C-242.69140625 183.48828125 -242.69140625 183.48828125 -245.69140625 181.48828125 C-244.04140625 181.15828125 -242.39140625 180.82828125 -240.69140625 180.48828125 C-241.68140625 179.16828125 -242.67140625 177.84828125 -243.69140625 176.48828125 C-242.96953125 176.09640625 -242.24765625 175.70453125 -241.50390625 175.30078125 C-238.64073222 173.61429047 -238.64073222 173.61429047 -236.56640625 171.23828125 C-233.14947678 167.96991393 -229.44099833 165.74471087 -225.4296875 163.26953125 C-221.87213499 160.95534588 -218.82501967 158.34335126 -215.69140625 155.48828125 C-217.67140625 155.81828125 -219.65140625 156.14828125 -221.69140625 156.48828125 C-221.69140625 155.82828125 -221.69140625 155.16828125 -221.69140625 154.48828125 C-220.046875 152.8671875 -220.046875 152.8671875 -217.87890625 151.05078125 C-215.38037907 148.94364449 -212.96720065 146.83586727 -210.69140625 144.48828125 C-211.46484375 144.30265625 -211.46484375 144.30265625 -212.25390625 144.11328125 C-215.41842976 143.30186497 -218.5526561 142.39368995 -221.69140625 141.48828125 C-220.59388395 138.49503862 -220.01457733 137.64217224 -217.06640625 136.23828125 C-216.28265625 135.99078125 -215.49890625 135.74328125 -214.69140625 135.48828125 C-214.69140625 134.82828125 -214.69140625 134.16828125 -214.69140625 133.48828125 C-213.35807292 132.82161458 -212.02473958 132.15494792 -210.69140625 131.48828125 C-210.03140625 131.13765625 -209.37140625 130.78703125 -208.69140625 130.42578125 C-206.69140625 129.48828125 -206.69140625 129.48828125 -202.69140625 128.48828125 C-202.03140625 125.18828125 -201.37140625 121.88828125 -200.69140625 118.48828125 C-201.35140625 118.48828125 -202.01140625 118.48828125 -202.69140625 118.48828125 C-202.69140625 119.14828125 -202.69140625 119.80828125 -202.69140625 120.48828125 C-204.34140625 120.48828125 -205.99140625 120.48828125 -207.69140625 120.48828125 C-207.69140625 119.82828125 -207.69140625 119.16828125 -207.69140625 118.48828125 C-205.04401709 117.02765275 -203.79692291 116.48828125 -200.69140625 116.48828125 C-200.36140625 114.17828125 -200.03140625 111.86828125 -199.69140625 109.48828125 C-201.67140625 108.82828125 -203.65140625 108.16828125 -205.69140625 107.48828125 C-205.19640625 106.00328125 -205.19640625 106.00328125 -204.69140625 104.48828125 C-203.24894531 104.08996094 -203.24894531 104.08996094 -201.77734375 103.68359375 C-198.45146386 102.78682611 -198.45146386 102.78682611 -197.23046875 99.66796875 C-196.92882812 98.57742187 -196.6271875 97.486875 -196.31640625 96.36328125 C-195.84074219 94.71972656 -195.84074219 94.71972656 -195.35546875 93.04296875 C-195.13632813 92.19992188 -194.9171875 91.356875 -194.69140625 90.48828125 C-195.02140625 90.15828125 -195.35140625 89.82828125 -195.69140625 89.48828125 C-196.70203125 89.98328125 -197.71265625 90.47828125 -198.75390625 90.98828125 C-202.47128813 92.60420439 -205.63097282 92.73687922 -209.69140625 92.48828125 C-209.36140625 91.82828125 -209.03140625 91.16828125 -208.69140625 90.48828125 C-208.03140625 90.48828125 -207.37140625 90.48828125 -206.69140625 90.48828125 C-206.19640625 89.00328125 -206.19640625 89.00328125 -205.69140625 87.48828125 C-204.70140625 87.48828125 -203.71140625 87.48828125 -202.69140625 87.48828125 C-202.65015625 86.89015625 -202.60890625 86.29203125 -202.56640625 85.67578125 C-201.69140625 83.48828125 -201.69140625 83.48828125 -198.81640625 81.80078125 C-193.03653899 79.373237 -193.03653899 79.373237 -189.69140625 80.48828125 C-189.59859375 79.80765625 -189.50578125 79.12703125 -189.41015625 78.42578125 C-188.52462659 74.80666002 -186.95791011 71.73814424 -185.19140625 68.48828125 C-184.83393311 67.82892578 -184.47645996 67.16957031 -184.1081543 66.49023438 C-165.25176638 32.37422339 -133.63168028 6.98233039 -96.31640625 -4.26171875 C-93.45381264 -5.06646914 -90.57978409 -5.80553822 -87.69140625 -6.51171875 C-86.70043945 -6.75946045 -86.70043945 -6.75946045 -85.68945312 -7.01220703 C-57.20962504 -13.79545672 -27.17353108 -9.72856353 0 0 Z M-127.69140625 27.48828125 C-129.13 28.50341797 -129.13 28.50341797 -130.59765625 29.5390625 C-145.96112321 40.68549536 -161.38115776 55.0452682 -169.69140625 72.48828125 C-170.01064054 75.15384927 -170.01064054 75.15384927 -169.69140625 77.48828125 C-169.36140625 77.81828125 -169.03140625 78.14828125 -168.69140625 78.48828125 C-169.84189453 78.53275391 -169.84189453 78.53275391 -171.015625 78.578125 C-173.9952676 79.25267778 -173.9952676 79.25267778 -175.2734375 82.4296875 C-175.67949219 83.62464844 -176.08554688 84.81960937 -176.50390625 86.05078125 C-177.13232422 87.84708984 -177.13232422 87.84708984 -177.7734375 89.6796875 C-178.07636719 90.60652344 -178.37929687 91.53335938 -178.69140625 92.48828125 C-175.7015381 91.75580775 -175.7015381 91.75580775 -172.69140625 90.48828125 C-171.46170747 86.97637316 -171.46170747 86.97637316 -170.69140625 83.48828125 C-169.20640625 82.99328125 -169.20640625 82.99328125 -167.69140625 82.48828125 C-168.35140625 84.13828125 -169.01140625 85.78828125 -169.69140625 87.48828125 C-160.79977093 85.99005698 -152.70908365 82.07052464 -145.69140625 76.48828125 C-148.36783114 74.30338118 -148.36783114 74.30338118 -150.69140625 74.48828125 C-150.69140625 75.14828125 -150.69140625 75.80828125 -150.69140625 76.48828125 C-156.13640625 76.98328125 -156.13640625 76.98328125 -161.69140625 77.48828125 C-161.69140625 78.14828125 -161.69140625 78.80828125 -161.69140625 79.48828125 C-163.01140625 79.48828125 -164.33140625 79.48828125 -165.69140625 79.48828125 C-166.06640625 77.23828125 -166.06640625 77.23828125 -165.69140625 74.48828125 C-161.93769008 71.36018444 -158.26108303 70.01150684 -153.69140625 68.48828125 C-152.77794434 67.87436523 -151.86448242 67.26044922 -150.92333984 66.62792969 C-147.69244079 64.48896615 -144.49945208 62.86811879 -140.98046875 61.25390625 C-140.06096939 60.82957306 -140.06096939 60.82957306 -139.12289429 60.39666748 C-137.1895491 59.50576908 -135.25307809 58.62192096 -133.31640625 57.73828125 C-131.99457741 57.13067422 -130.67296072 56.52260546 -129.3515625 55.9140625 C-126.13394293 54.43346187 -122.91348346 52.95916045 -119.69140625 51.48828125 C-122.8060603 54.69630822 -125.93153879 57.05542583 -129.69140625 59.48828125 C-132.03846571 61.13641757 -134.36391503 62.81248757 -136.69140625 64.48828125 C-134.92000281 65.26127312 -134.92000281 65.26127312 -132.69140625 65.48828125 C-130.38995552 64.37341211 -130.38995552 64.37341211 -128.19140625 62.67578125 C-122.49502109 58.56931181 -118.64260268 57.18340089 -111.69140625 56.48828125 C-112.02140625 55.49828125 -112.35140625 54.50828125 -112.69140625 53.48828125 C-110.74927444 52.50862184 -108.80667915 51.54155864 -106.83203125 50.62890625 C-102.25570286 48.47311519 -98.50380822 45.9392505 -94.6484375 42.66015625 C-92.19520068 41.19115217 -90.50175135 41.27471444 -87.69140625 41.48828125 C-88.02140625 42.47828125 -88.35140625 43.46828125 -88.69140625 44.48828125 C-83.53792921 43.25144676 -80.05539148 41.6189663 -75.69140625 38.48828125 C-74.78390625 37.99328125 -73.87640625 37.49828125 -72.94140625 36.98828125 C-70.57016942 35.68191356 -70.57016942 35.68191356 -69.69140625 33.42578125 C-68.23913489 30.61200548 -66.6811116 30.45542083 -63.69140625 29.48828125 C-59.86468112 28.89511826 -56.03595495 28.47796356 -52.1875 28.05078125 C-48.81928802 27.69362857 -48.81928802 27.69362857 -46.54296875 26.38671875 C-44.00064856 25.15310347 -42.38550775 25.63422532 -39.62890625 26.11328125 C-34.07614256 26.75740184 -30.35158638 25.65010176 -25.24609375 23.53125 C-23.02058105 22.62266913 -20.96835818 22.00032997 -18.62890625 21.48828125 C-13.77732889 20.37877291 -9.26497188 18.41892576 -4.69140625 16.48828125 C-7.43596654 12.79657859 -11.53351298 12.08644634 -15.75390625 10.92578125 C-16.52033447 10.70889648 -17.2867627 10.49201172 -18.07641602 10.26855469 C-23.5695649 8.73839084 -29.04803345 7.34273558 -34.69140625 6.48828125 C-35.40296875 6.37742187 -36.11453125 6.2665625 -36.84765625 6.15234375 C-67.6729929 2.24639356 -102.28479214 9.09985221 -127.69140625 27.48828125 Z M21.30859375 31.48828125 C20.64859375 32.14828125 19.98859375 32.80828125 19.30859375 33.48828125 C20.95859375 33.48828125 22.60859375 33.48828125 24.30859375 33.48828125 C24.30859375 32.82828125 24.30859375 32.16828125 24.30859375 31.48828125 C23.31859375 31.48828125 22.32859375 31.48828125 21.30859375 31.48828125 Z M41.30859375 50.48828125 C41.96859375 51.14828125 42.62859375 51.80828125 43.30859375 52.48828125 C43.30859375 51.82828125 43.30859375 51.16828125 43.30859375 50.48828125 C42.64859375 50.48828125 41.98859375 50.48828125 41.30859375 50.48828125 Z M-45.69140625 51.48828125 C-45.69140625 52.14828125 -45.69140625 52.80828125 -45.69140625 53.48828125 C-46.35140625 53.48828125 -47.01140625 53.48828125 -47.69140625 53.48828125 C-49.34140625 57.11828125 -50.99140625 60.74828125 -52.69140625 64.48828125 C-52.69140625 61.84828125 -52.69140625 59.20828125 -52.69140625 56.48828125 C-54.67140625 56.48828125 -56.65140625 56.48828125 -58.69140625 56.48828125 C-62.35447536 69.11281521 -62.35447536 69.11281521 -65.17578125 81.94140625 C-65.81951217 85.12104686 -66.67046002 88.22793592 -67.50390625 91.36328125 C-69.51583982 99.14656783 -71.00110173 107.01925398 -72.44140625 114.92578125 C-72.66417236 116.12251465 -72.88693848 117.31924805 -73.11645508 118.55224609 C-74.13207539 124.25997644 -74.88193555 129.66774383 -74.71679688 135.46557617 C-74.67446436 138.8379306 -75.13200655 142.08090354 -75.56640625 145.42578125 C-75.65591553 146.11889404 -75.7454248 146.81200684 -75.83764648 147.52612305 C-76.44818519 152.10169741 -77.27265777 156.59004605 -78.25390625 161.09765625 C-78.93500161 164.81935589 -79.18612464 168.56448967 -79.4453125 172.3359375 C-79.69140625 174.48828125 -79.69140625 174.48828125 -80.69140625 175.48828125 C-80.98684504 178.81196768 -81.11829881 180.809134 -79.31640625 183.67578125 C-78.78015625 184.27390625 -78.24390625 184.87203125 -77.69140625 185.48828125 C-77.03140625 186.47828125 -76.37140625 187.46828125 -75.69140625 188.48828125 C-67.33075736 191.18793064 -58.49746661 190.50514434 -49.87719727 189.85839844 C-47.81733508 189.70430348 -45.75440448 189.59228013 -43.69140625 189.48828125 C-43.36140625 189.81828125 -43.03140625 190.14828125 -42.69140625 190.48828125 C-38.85718063 190.58258666 -35.02224013 190.34028176 -31.19140625 190.17578125 C-30.12664062 190.14033203 -29.061875 190.10488281 -27.96484375 190.06835938 C-21.63184341 189.80772607 -15.83142898 189.06843416 -9.69140625 187.48828125 C-9.69140625 187.15828125 -9.69140625 186.82828125 -9.69140625 186.48828125 C-14.31140625 186.15828125 -18.93140625 185.82828125 -23.69140625 185.48828125 C-22.37785156 185.51148438 -21.06429687 185.5346875 -19.7109375 185.55859375 C-17.97526612 185.57735776 -16.23958857 185.59555729 -14.50390625 185.61328125 C-13.20743164 185.63841797 -13.20743164 185.63841797 -11.88476562 185.6640625 C-5.54038844 185.7508791 -5.54038844 185.7508791 0.30859375 183.48828125 C1.6693741 180.96455224 1.6693741 180.96455224 2.30859375 178.48828125 C-0.31339399 176.33450561 -2.33544797 175.08755951 -5.69140625 174.48828125 C-5.19640625 172.50828125 -5.19640625 172.50828125 -4.69140625 170.48828125 C-8.16517741 168.17243381 -9.47486585 168.24576054 -13.56640625 168.30078125 C-14.59507812 168.30722656 -15.62375 168.31367188 -16.68359375 168.3203125 C-20.04669225 168.42268924 -23.38890754 168.69265282 -26.7421875 168.96484375 C-33.82481654 169.53017408 -40.9036946 169.81397813 -48.00390625 170.05078125 C-49.23302734 170.09396484 -50.46214844 170.13714844 -51.72851562 170.18164062 C-54.71607111 170.28626319 -57.70368768 170.38844452 -60.69140625 170.48828125 C-60.52535889 169.71452148 -60.35931152 168.94076172 -60.18823242 168.14355469 C-59.55156854 165.16229823 -58.92049974 162.1799172 -58.29272461 159.19677734 C-57.89516304 157.31522048 -57.49165287 155.43492351 -57.08789062 153.5546875 C-55.59565057 146.44351884 -54.33863044 139.34958113 -53.3125 132.15625 C-52.17947677 124.2623254 -50.78117621 116.44264224 -49.24609375 108.6171875 C-49.02897232 107.5100943 -48.81185089 106.4030011 -48.58815002 105.26235962 C-47.68974146 100.70272783 -46.78487164 96.1444187 -45.87451172 91.5871582 C-41.01125198 71.64843856 -41.01125198 71.64843856 -41.69140625 51.48828125 C-43.01140625 51.48828125 -44.33140625 51.48828125 -45.69140625 51.48828125 Z M-115.69140625 68.48828125 C-116.35140625 69.14828125 -117.01140625 69.80828125 -117.69140625 70.48828125 C-119.36603985 71.02981479 -121.05693412 71.52143885 -122.75390625 71.98828125 C-129.2308972 74.04631794 -134.56920534 77.2334196 -140.31152344 80.77001953 C-145.74188853 84.06466922 -150.99939225 86.38614097 -157.0546875 88.35546875 C-159.98317893 89.61363544 -161.59980011 91.11348853 -163.69140625 93.48828125 C-163.36140625 94.14828125 -163.03140625 94.80828125 -162.69140625 95.48828125 C-163.49578125 95.22015625 -164.30015625 94.95203125 -165.12890625 94.67578125 C-169.65906036 94.43735209 -171.7852719 95.90162143 -175.54296875 98.26171875 C-177.62022326 99.44764223 -179.35692432 100.03406078 -181.69140625 100.48828125 C-181.74039063 101.05675781 -181.789375 101.62523437 -181.83984375 102.2109375 C-182.32283706 107.19909254 -183.16778788 111.71427703 -184.69140625 116.48828125 C-180.27618516 115.21853153 -180.27618516 115.21853153 -176.69140625 112.48828125 C-176.69140625 111.49828125 -176.69140625 110.50828125 -176.69140625 109.48828125 C-176.36140625 110.14828125 -176.03140625 110.80828125 -175.69140625 111.48828125 C-173.23915931 111.38214289 -173.23915931 111.38214289 -170.69140625 110.48828125 C-168.31101737 106.63431831 -168.51769201 102.91799435 -168.69140625 98.48828125 C-167.75167969 98.52308594 -167.75167969 98.52308594 -166.79296875 98.55859375 C-165.56707031 98.58566406 -165.56707031 98.58566406 -164.31640625 98.61328125 C-163.50429687 98.63648437 -162.6921875 98.6596875 -161.85546875 98.68359375 C-159.47798382 98.70198176 -159.47798382 98.70198176 -157.69140625 96.48828125 C-155.03603253 95.92308122 -152.39995912 95.75039927 -149.69140625 95.48828125 C-149.03140625 92.84828125 -148.37140625 90.20828125 -147.69140625 87.48828125 C-145.38140625 86.82828125 -143.07140625 86.16828125 -140.69140625 85.48828125 C-140.69140625 84.49828125 -140.69140625 83.50828125 -140.69140625 82.48828125 C-139.72203125 82.40578125 -138.75265625 82.32328125 -137.75390625 82.23828125 C-133.78661146 81.67724966 -130.49803868 80.23104284 -126.89453125 78.52734375 C-124.93145073 77.60149372 -122.95854099 76.786365 -120.94140625 75.98828125 C-117.70088185 74.4926546 -115.28851051 72.92798525 -112.69140625 70.48828125 C-112.69140625 69.82828125 -112.69140625 69.16828125 -112.69140625 68.48828125 C-113.68140625 68.48828125 -114.67140625 68.48828125 -115.69140625 68.48828125 Z M181.30859375 100.48828125 C182.30859375 103.48828125 182.30859375 103.48828125 182.30859375 103.48828125 Z M-160.69140625 161.48828125 C-161.27148438 161.90980469 -161.8515625 162.33132812 -162.44921875 162.765625 C-166.98050648 165.94350831 -170.14874828 167.74926019 -175.69140625 168.48828125 C-179.00000097 170.44284902 -179.00000097 170.44284902 -181.69140625 172.48828125 C-180.37140625 176.77828125 -179.05140625 181.06828125 -177.69140625 185.48828125 C-172.66295467 184.55357298 -172.66295467 184.55357298 -169.69140625 181.48828125 C-167.22676542 180.2002708 -164.76746176 178.98392427 -162.25390625 177.80078125 C-154.98172561 174.27987246 -148.14692735 170.3910539 -141.69140625 165.48828125 C-141.69140625 165.15828125 -141.69140625 164.82828125 -141.69140625 164.48828125 C-147.0585729 163.64966146 -150.48767864 166.5675772 -154.69140625 169.48828125 C-154.36140625 167.50828125 -154.03140625 165.52828125 -153.69140625 163.48828125 C-156.18233436 162.2428172 -157.10221358 162.71152345 -159.69140625 163.48828125 C-160.02140625 162.82828125 -160.35140625 162.16828125 -160.69140625 161.48828125 Z M2.80859375 202.36328125 C1.89078125 202.71132812 0.97296875 203.059375 0.02734375 203.41796875 C-0.86984375 203.77117187 -1.76703125 204.124375 -2.69140625 204.48828125 C-3.60921875 204.82085937 -4.52703125 205.1534375 -5.47265625 205.49609375 C-7.85045891 206.27810152 -7.85045891 206.27810152 -8.69140625 208.48828125 C-6.05140625 208.15828125 -3.41140625 207.82828125 -0.69140625 207.48828125 C-0.19640625 210.95328125 -0.19640625 210.95328125 0.30859375 214.48828125 C-0.28308594 214.53726563 -0.87476563 214.58625 -1.484375 214.63671875 C-2.27457031 214.71148437 -3.06476563 214.78625 -3.87890625 214.86328125 C-4.65621094 214.93289062 -5.43351562 215.0025 -6.234375 215.07421875 C-8.93695642 215.52966172 -11.15288958 216.46668308 -13.69140625 217.48828125 C-15.61932702 217.90977 -17.55793795 218.28504563 -19.50390625 218.61328125 C-20.47972656 218.78085938 -21.45554687 218.9484375 -22.4609375 219.12109375 C-23.19699219 219.24226563 -23.93304688 219.3634375 -24.69140625 219.48828125 C-24.36140625 218.16828125 -24.03140625 216.84828125 -23.69140625 215.48828125 C-25.34140625 215.81828125 -26.99140625 216.14828125 -28.69140625 216.48828125 C-28.36140625 215.49828125 -28.03140625 214.50828125 -27.69140625 213.48828125 C-29.13071742 213.94089483 -30.56779624 214.40061104 -32.00390625 214.86328125 C-33.20466797 215.24613281 -33.20466797 215.24613281 -34.4296875 215.63671875 C-36.91865153 216.47659936 -36.91865153 216.47659936 -39.69140625 218.48828125 C-38.69140625 216.48828125 -38.69140625 216.48828125 -35.69140625 215.48828125 C-35.69140625 214.82828125 -35.69140625 214.16828125 -35.69140625 213.48828125 C-42.42718255 215.34218536 -42.42718255 215.34218536 -48.81640625 218.11328125 C-53.30532293 220.26015445 -57.72378606 220.48828125 -62.69140625 220.48828125 C-63.1090625 220.93300781 -63.52671875 221.37773437 -63.95703125 221.8359375 C-66.46218977 224.22260879 -69.17093867 224.85551021 -72.44140625 225.92578125 C-77.58153957 227.65821115 -82.05428599 229.68668776 -86.69140625 232.48828125 C-87.80515625 232.81828125 -88.91890625 233.14828125 -90.06640625 233.48828125 C-91.36578125 233.98328125 -91.36578125 233.98328125 -92.69140625 234.48828125 C-93.66017682 236.52071673 -93.66017682 236.52071673 -93.69140625 238.48828125 C-97.15640625 238.98328125 -97.15640625 238.98328125 -100.69140625 239.48828125 C-100.69140625 239.15828125 -100.69140625 238.82828125 -100.69140625 238.48828125 C-102.67140625 238.48828125 -104.65140625 238.48828125 -106.69140625 238.48828125 C-106.36140625 239.80828125 -106.03140625 241.12828125 -105.69140625 242.48828125 C-112.10862479 246.26311569 -112.10862479 246.26311569 -115.44140625 247.55078125 C-117.82356854 248.54334887 -118.9445539 249.6360154 -120.69140625 251.48828125 C-101.94300357 261.18739072 -83.08487369 268.76147216 -61.69140625 269.48828125 C-60.11939453 269.54822266 -60.11939453 269.54822266 -58.515625 269.609375 C-20.76248421 270.33621916 12.72522188 255.85622133 39.80664062 229.96289062 C47.32231006 223.03955665 47.32231006 223.03955665 52.30859375 214.48828125 C48.964859 215.04557038 46.27546376 215.84002014 43.30859375 217.48828125 C42.97859375 216.82828125 42.64859375 216.16828125 42.30859375 215.48828125 C42.30859375 216.47828125 42.30859375 217.46828125 42.30859375 218.48828125 C40.32859375 218.98328125 40.32859375 218.98328125 38.30859375 219.48828125 C38.30859375 218.82828125 38.30859375 218.16828125 38.30859375 217.48828125 C36.65859375 217.81828125 35.00859375 218.14828125 33.30859375 218.48828125 C33.30859375 219.14828125 33.30859375 219.80828125 33.30859375 220.48828125 C32.42171875 220.75640625 31.53484375 221.02453125 30.62109375 221.30078125 C27.52808369 222.40959618 25.10370156 223.79650547 22.30859375 225.48828125 C20.18359375 226.11328125 20.18359375 226.11328125 18.30859375 226.48828125 C17.31859375 226.81828125 16.32859375 227.14828125 15.30859375 227.48828125 C16.30859375 225.48828125 16.30859375 225.48828125 19.30859375 224.48828125 C19.30859375 223.82828125 19.30859375 223.16828125 19.30859375 222.48828125 C20.29859375 221.99328125 20.29859375 221.99328125 21.30859375 221.48828125 C21.30859375 220.82828125 21.30859375 220.16828125 21.30859375 219.48828125 C23.28859375 218.99328125 23.28859375 218.99328125 25.30859375 218.48828125 C24.97859375 217.49828125 24.64859375 216.50828125 24.30859375 215.48828125 C16.32082182 217.0480237 8.6977367 218.94008359 1.01953125 221.63671875 C-2.57120035 222.76464309 -5.94668957 223.20022612 -9.69140625 223.48828125 C-9.69140625 222.82828125 -9.69140625 222.16828125 -9.69140625 221.48828125 C-11.67140625 221.81828125 -13.65140625 222.14828125 -15.69140625 222.48828125 C-15.69140625 221.82828125 -15.69140625 221.16828125 -15.69140625 220.48828125 C-14.17546875 220.55015625 -14.17546875 220.55015625 -12.62890625 220.61328125 C-8.51064573 220.48254282 -5.57310092 219.75577339 -1.69140625 218.48828125 C-1.69140625 217.82828125 -1.69140625 217.16828125 -1.69140625 216.48828125 C-1.00175781 216.37871094 -0.31210937 216.26914063 0.3984375 216.15625 C7.74808604 214.91618584 15.02833752 213.67511874 21.30859375 209.48828125 C21.55875248 205.90470884 21.55875248 205.90470884 21.30859375 202.48828125 C20.09171875 202.15828125 18.87484375 201.82828125 17.62109375 201.48828125 C16.93660156 201.30265625 16.25210938 201.11703125 15.546875 200.92578125 C10.76663397 199.99142349 7.32992202 200.62333189 2.80859375 202.36328125 Z " fill="#D7DDED" transform="translate(280.69140625,23.51171875)"/>
<path d="M0 0 C-0.165 0.61875 -0.33 1.2375 -0.5 1.875 C-1.07634644 3.96063386 -1.07634644 3.96063386 -1 6 C-1.9075 6.061875 -2.815 6.12375 -3.75 6.1875 C-9.43250063 6.99427478 -14.98400707 9.26256537 -20 12 C-20.33 12.99 -20.66 13.98 -21 15 C-19.576875 14.2265625 -19.576875 14.2265625 -18.125 13.4375 C-12.24208612 10.88544164 -5.99676049 12.40086387 0 14 C-0.33 14.99 -0.66 15.98 -1 17 C-1.77085937 16.91621094 -2.54171875 16.83242188 -3.3359375 16.74609375 C-4.33882813 16.64425781 -5.34171875 16.54242188 -6.375 16.4375 C-7.37273437 16.33308594 -8.37046875 16.22867188 -9.3984375 16.12109375 C-11.984037 15.78855292 -11.984037 15.78855292 -14 17 C-23.04811033 18.68135384 -29.43163834 15.26019706 -37.10546875 11.04296875 C-40.94788926 8.94166037 -44.87239492 7.4554514 -49 6 C-49 5.34 -49 4.68 -49 4 C-48.08089844 4.02835938 -47.16179687 4.05671875 -46.21484375 4.0859375 C-40.94794682 4.08329414 -35.77556799 3.31350291 -30.5625 2.625 C-29.50659668 2.4899707 -28.45069336 2.35494141 -27.36279297 2.21582031 C-22.55348127 1.59993583 -17.7466 0.96748318 -12.94140625 0.3203125 C-12.20269287 0.22282715 -11.46397949 0.1253418 -10.70288086 0.02490234 C-8.75172314 -0.23323461 -6.80160035 -0.4991602 -4.8515625 -0.765625 C-2 -1 -2 -1 0 0 Z " fill="#D9DFEC" transform="translate(364,34)"/>
<path d="M0 0 C0.66 0.33 1.32 0.66 2 1 C1.67 3.31 1.34 5.62 1 8 C1.99 7.67 2.98 7.34 4 7 C4.33 7.99 4.66 8.98 5 10 C4.34 10 3.68 10 3 10 C2.731875 10.61875 2.46375 11.2375 2.1875 11.875 C1 14 1 14 -2 16 C-2 16.66 -2 17.32 -2 18 C-0.68 17.34 0.64 16.68 2 16 C2.33 16.99 2.66 17.98 3 19 C2.67 19.66 2.34 20.32 2 21 C0.02 21 -1.96 21 -4 21 C-4.33 20.01 -4.66 19.02 -5 18 C-7.75273867 16.64402132 -10.59808625 15.80462516 -13.515625 14.8515625 C-14.74796875 14.44679687 -15.9803125 14.04203125 -17.25 13.625 C-18.49265625 13.22539062 -19.7353125 12.82578125 -21.015625 12.4140625 C-24 11 -24 11 -24.921875 8.8359375 C-24.94765625 8.23007813 -24.9734375 7.62421875 -25 7 C-18.66767955 4.72036464 -12.73164286 7.30963703 -7 10 C-6.773125 9.278125 -6.54625 8.55625 -6.3125 7.8125 C-4.75168987 4.46790687 -2.6968713 2.48396041 0 0 Z " fill="#D9DFEC" transform="translate(462,165)"/>
<path d="M0 0 C-0.875 3.875 -0.875 3.875 -2 5 C-4.34987262 5.23527773 -6.70556039 5.41386417 -9.0625 5.5625 C-10.99802734 5.68818359 -10.99802734 5.68818359 -12.97265625 5.81640625 C-13.97167969 5.87699219 -14.97070312 5.93757813 -16 6 C-16.33 7.32 -16.66 8.64 -17 10 C-20.96 10.495 -20.96 10.495 -25 11 C-24.34 10.67 -23.68 10.34 -23 10 C-23.83333333 7.83333333 -23.83333333 7.83333333 -26 7 C-25.9375 5.25 -25.9375 5.25 -25 3 C-21.32761653 0.13940656 -18.70446134 -1 -14 -1 C-14 -1.66 -14 -2.32 -14 -3 C-16.31 -2.34 -18.62 -1.68 -21 -1 C-21 -2.32 -21 -3.64 -21 -5 C-14.17576286 -7.37086173 -5.98046339 -3.39431706 0 0 Z " fill="#D9DFEC" transform="translate(395,35)"/>
<path d="M0 0 C5.28 0 10.56 0 16 0 C16 1.32 16 2.64 16 4 C13 6 13 6 9 6 C8.67 7.65 8.34 9.3 8 11 C3.25 12 3.25 12 1 12 C-1.44576827 8.33134759 -1.23607254 6.32799657 -1 2 C-0.67 1.34 -0.34 0.68 0 0 Z " fill="#D8DEED" transform="translate(318,3)"/>
<path d="M0 0 C0 0.99 0 1.98 0 3 C-3.9333595 4.20152572 -7.87224819 5.38379219 -11.8125 6.5625 C-12.93205078 6.90474609 -14.05160156 7.24699219 -15.20507812 7.59960938 C-16.27822266 7.91865234 -17.35136719 8.23769531 -18.45703125 8.56640625 C-19.9416687 9.01415405 -19.9416687 9.01415405 -21.45629883 9.47094727 C-24 10 -24 10 -27 9 C-29.07647876 9.30806453 -29.07647876 9.30806453 -31.1875 9.9375 C-32.445625 10.288125 -33.70375 10.63875 -35 11 C-32.77507632 7.47322541 -31.11918303 6.36511547 -27.11328125 5.296875 C-25.7065918 4.91015625 -25.7065918 4.91015625 -24.27148438 4.515625 C-23.29501953 4.26296875 -22.31855469 4.0103125 -21.3125 3.75 C-20.32443359 3.481875 -19.33636719 3.21375 -18.31835938 2.9375 C-15.88212554 2.27842225 -13.44306099 1.63320994 -11 1 C-10.67 1.66 -10.34 2.32 -10 3 C-5.05 1.515 -5.05 1.515 0 0 Z " fill="#DBE1EB" transform="translate(334,16)"/>
<path d="M0 0 C-2.14067088 3.21100632 -3.41680549 3.74763454 -6.8828125 5.12109375 C-9.27858075 6.11564699 -11.56367433 7.26023599 -13.875 8.4375 C-17.21464445 10.11497027 -20.55495673 11.78547967 -23.9375 13.375 C-24.64777344 13.71273437 -25.35804687 14.05046875 -26.08984375 14.3984375 C-28 15 -28 15 -31 14 C-30.360625 13.71125 -29.72125 13.4225 -29.0625 13.125 C-26.84793921 12.17176549 -26.84793921 12.17176549 -26 10 C-24.30726482 9.26541681 -22.6118561 8.53378485 -20.88671875 7.87890625 C-18.91144527 7.04003001 -18.91144527 7.04003001 -17.078125 5.5390625 C-14.81685544 3.86436286 -12.66982791 2.8610556 -10.0625 1.8125 C-9.22847656 1.46832031 -8.39445312 1.12414062 -7.53515625 0.76953125 C-4.88633868 -0.0345012 -2.75111666 -0.1427234 0 0 Z " fill="#DBE1EC" transform="translate(73,228)"/>
<path d="M0 0 C0.66 0.99 1.32 1.98 2 3 C-0.12282669 4.00460531 -2.24833021 5.00355602 -4.375 6 C-6.15003906 6.8353125 -6.15003906 6.8353125 -7.9609375 7.6875 C-11 9 -11 9 -13 9 C-13.1875 6.625 -13.1875 6.625 -13 4 C-9.99559979 1.99706653 -8.29006055 1.50728374 -4.8125 0.875 C-3.91144531 0.70742188 -3.01039063 0.53984375 -2.08203125 0.3671875 C-1.39496094 0.24601562 -0.70789063 0.12484375 0 0 Z " fill="#DBE0EB" transform="translate(231,257)"/>
<path d="M0 0 C-0.33 0.66 -0.66 1.32 -1 2 C-0.01 2 0.98 2 2 2 C2 2.66 2 3.32 2 4 C1.12988281 4.07347656 1.12988281 4.07347656 0.2421875 4.1484375 C-4.43923092 4.59649405 -8.57485459 5.298021 -13 7 C-12.67 5.02 -12.34 3.04 -12 1 C-10.37681021 0.63762737 -8.7513642 0.28534843 -7.125 -0.0625 C-6.22007812 -0.25972656 -5.31515625 -0.45695312 -4.3828125 -0.66015625 C-2 -1 -2 -1 0 0 Z " fill="#DBE1EC" transform="translate(370,24)"/>
<path d="M0 0 C1.3303125 0.02126953 1.3303125 0.02126953 2.6875 0.04296875 C4.0178125 0.05263672 4.0178125 0.05263672 5.375 0.0625 C7.6875 0.23046875 7.6875 0.23046875 9.6875 1.23046875 C9.3575 2.55046875 9.0275 3.87046875 8.6875 5.23046875 C3.97346212 4.75107507 0.02170699 4.26212827 -4.3125 2.23046875 C-2.3125 0.23046875 -2.3125 0.23046875 0 0 Z " fill="#DAE0EC" transform="translate(350.3125,51.76953125)"/>
<path d="M0 0 C-2.61970793 1.53064939 -5.24501643 3.04969748 -7.875 4.5625 C-8.99455078 5.21895508 -8.99455078 5.21895508 -10.13671875 5.88867188 C-10.85214844 6.29794922 -11.56757813 6.70722656 -12.3046875 7.12890625 C-13.2944458 7.70233765 -13.2944458 7.70233765 -14.30419922 8.28735352 C-14.86381348 8.52252686 -15.42342773 8.7577002 -16 9 C-16.66 8.67 -17.32 8.34 -18 8 C-4.2745098 -1.4248366 -4.2745098 -1.4248366 0 0 Z " fill="#DCE1EB" transform="translate(42,244)"/>
<path d="M0 0 C-1.00617682 2.67576692 -1.54214546 3.7785108 -4.1640625 5.046875 C-4.97617187 5.27890625 -5.78828125 5.5109375 -6.625 5.75 C-7.85089844 6.11351562 -7.85089844 6.11351562 -9.1015625 6.484375 C-10.04128906 6.73960937 -10.04128906 6.73960937 -11 7 C-10 4 -10 4 -8.22265625 2.83203125 C-7.50980469 2.49558594 -6.79695312 2.15914062 -6.0625 1.8125 C-5.35222656 1.46832031 -4.64195313 1.12414062 -3.91015625 0.76953125 C-2 0 -2 0 0 0 Z " fill="#DCE2EB" transform="translate(21,133)"/>
<path d="M0 0 C1.9375 0.6875 1.9375 0.6875 4 2 C4.75 4.625 4.75 4.625 5 7 C3.68 7.33 2.36 7.66 1 8 C1.33 6.68 1.66 5.36 2 4 C1.01 4.33 0.02 4.66 -1 5 C-1 4.34 -1 3.68 -1 3 C-0.34 3 0.32 3 1 3 C0.67 2.01 0.34 1.02 0 0 Z " fill="#DCE1EB" transform="translate(376,224)"/>
<path d="M0 0 C0.86625 0.2784375 0.86625 0.2784375 1.75 0.5625 C3.98119199 1.16852477 3.98119199 1.16852477 6.0625 0.4375 C6.701875 0.293125 7.34125 0.14875 8 0 C8.99 0.66 9.98 1.32 11 2 C10 3 10 3 7.71484375 3.09765625 C6.34005859 3.08025391 6.34005859 3.08025391 4.9375 3.0625 C4.01839844 3.05347656 3.09929687 3.04445312 2.15234375 3.03515625 C1.44207031 3.02355469 0.73179687 3.01195312 0 3 C0 2.01 0 1.02 0 0 Z " fill="#DCE1EC" transform="translate(344,58)"/>
<path d="M0 0 C2.64 0 5.28 0 8 0 C7.01 1.485 7.01 1.485 6 3 C2.375 3.1875 2.375 3.1875 -1 3 C-0.67 2.01 -0.34 1.02 0 0 Z " fill="#DCE2EC" transform="translate(380,24)"/>
<path d="M0 0 C2.64 0 5.28 0 8 0 C8 0.66 8 1.32 8 2 C5.36 2.33 2.72 2.66 0 3 C0 2.01 0 1.02 0 0 Z " fill="#DCE1EB" transform="translate(366,56)"/>
<path d="M0 0 C2.97 0 5.94 0 9 0 C9 0.66 9 1.32 9 2 C6.03 2 3.06 2 0 2 C0 1.34 0 0.68 0 0 Z " fill="#DFE0EA" transform="translate(222,197)"/>
<path d="M0 0 C1.32 0 2.64 0 4 0 C3.67 1.32 3.34 2.64 3 4 C1.68 3.67 0.36 3.34 -1 3 C-0.67 2.01 -0.34 1.02 0 0 Z " fill="#DCE2EC" transform="translate(403,13)"/>
<path d="M0 0 C1.98 0.66 3.96 1.32 6 2 C6 2.66 6 3.32 6 4 C3.03 3.505 3.03 3.505 0 3 C0 2.01 0 1.02 0 0 Z " fill="#DCE1EB" transform="translate(419,97)"/>
<path d="M0 0 C0.66 0.66 1.32 1.32 2 2 C1.625 4.625 1.625 4.625 1 7 C0.34 6.34 -0.32 5.68 -1 5 C-0.625 2.375 -0.625 2.375 0 0 Z " fill="#DDE2EA" transform="translate(433,184)"/>
<path d="M0 0 C-0.33 0.66 -0.66 1.32 -1 2 C-2.65 2 -4.3 2 -6 2 C-6 1.34 -6 0.68 -6 0 C-3 -1 -3 -1 0 0 Z " fill="#DDE1EB" transform="translate(68,112)"/>
<path d="M0 0 C0 0.66 0 1.32 0 2 C-1.65 2.33 -3.3 2.66 -5 3 C-5 2.34 -5 1.68 -5 1 C-3 0 -3 0 0 0 Z " fill="#DDE2EA" transform="translate(69,223)"/>
<path d="M0 0 C1.65 0 3.3 0 5 0 C4.67 0.66 4.34 1.32 4 2 C2.68 2 1.36 2 0 2 C0 1.34 0 0.68 0 0 Z " fill="#DDE3EA" transform="translate(351,62)"/>
<path d="M0 0 C0.66 0 1.32 0 2 0 C2 0.99 2 1.98 2 3 C1.01 3 0.02 3 -1 3 C-0.67 2.01 -0.34 1.02 0 0 Z " fill="#DDE2EB" transform="translate(363,56)"/>
<path d="M0 0 C1.32 0 2.64 0 4 0 C4 0.66 4 1.32 4 2 C2.68 2 1.36 2 0 2 C0 1.34 0 0.68 0 0 Z " fill="#DFE1EA" transform="translate(349,21)"/>
<path d="M0 0 C-0.33 0.99 -0.66 1.98 -1 3 C-1.99 2.34 -2.98 1.68 -4 1 C-2 0 -2 0 0 0 Z " fill="#E0E1E7" transform="translate(252,240)"/>
<path d="M0 0 C0.66 0.99 1.32 1.98 2 3 C0.68 2.67 -0.64 2.34 -2 2 C-1.34 1.34 -0.68 0.68 0 0 Z " fill="#DDE2EA" transform="translate(341,57)"/>
<path d="M0 0 C0.99 0 1.98 0 3 0 C3 0.66 3 1.32 3 2 C2.01 2 1.02 2 0 2 C0 1.34 0 0.68 0 0 Z " fill="#DFE1E5" transform="translate(250,260)"/>
<path d="M0 0 C0.66 0 1.32 0 2 0 C2 0.99 2 1.98 2 3 C1.34 3 0.68 3 0 3 C0 2.01 0 1.02 0 0 Z " fill="#DEE0E7" transform="translate(405,116)"/>
<path d="M0 0 C0.99 0.33 1.98 0.66 3 1 C2.34 1.66 1.68 2.32 1 3 C0.67 2.01 0.34 1.02 0 0 Z " fill="#DDE1EB" transform="translate(415,113)"/>
<path d="M0 0 C1.32 0.33 2.64 0.66 4 1 C2.68 1 1.36 1 0 1 C0 0.67 0 0.34 0 0 Z " fill="#DEE0EB" transform="translate(345,32)"/>
<path d="M0 0 C0.33 0.66 0.66 1.32 1 2 C0.01 2.33 -0.98 2.66 -2 3 C-2 2.34 -2 1.68 -2 1 C-1.34 0.67 -0.68 0.34 0 0 Z " fill="#DDE3EB" transform="translate(133,285)"/>
<path d="M0 0 C0.99 0.33 1.98 0.66 3 1 C2.01 1.33 1.02 1.66 0 2 C0 1.34 0 0.68 0 0 Z " fill="#DEE1E8" transform="translate(205,260)"/>
<path d="M0 0 C0.66 0 1.32 0 2 0 C2 0.66 2 1.32 2 2 C1.01 1.67 0.02 1.34 -1 1 C-0.67 0.67 -0.34 0.34 0 0 Z " fill="#DEE1E8" transform="translate(250,244)"/>
<path d="M0 0 C0.66 0 1.32 0 2 0 C1.67 0.99 1.34 1.98 1 3 C0.67 2.01 0.34 1.02 0 0 Z " fill="#DDE2EB" transform="translate(54,116)"/>
<path d="M0 0 C0.99 0.33 1.98 0.66 3 1 C2.01 1.33 1.02 1.66 0 2 C0 1.34 0 0.68 0 0 Z " fill="#DFE2EA" transform="translate(206,57)"/>
<path d="M0 0 C0.99 0.33 1.98 0.66 3 1 C2.01 1 1.02 1 0 1 C0 0.67 0 0.34 0 0 Z " fill="#DFE2EA" transform="translate(230,247)"/>
<path d="M0 0 C0.66 0.33 1.32 0.66 2 1 C1.01 1 0.02 1 -1 1 C-0.67 0.67 -0.34 0.34 0 0 Z " fill="#DDE1EB" transform="translate(71,221)"/>
<path d="M0 0 C0.66 0 1.32 0 2 0 C2 0.66 2 1.32 2 2 C1.34 2 0.68 2 0 2 C0 1.34 0 0.68 0 0 Z " fill="#DCE2EC" transform="translate(471,172)"/>
<path d="M0 0 C0.99 0.495 0.99 0.495 2 1 C1.01 1.495 1.01 1.495 0 2 C0 1.34 0 0.68 0 0 Z " fill="#DEE3EB" transform="translate(0,300)"/>
<path d="M0 0 C0.99 0.495 0.99 0.495 2 1 C1.01 1.495 1.01 1.495 0 2 C0 1.34 0 0.68 0 0 Z " fill="#DDE2EC" transform="translate(6,296)"/>
<path d="M0 0 C0.33 0.66 0.66 1.32 1 2 C0.34 1.67 -0.32 1.34 -1 1 C-0.67 0.67 -0.34 0.34 0 0 Z " fill="#DFE2EA" transform="translate(115,294)"/>
<path d="M0 0 C0.33 0.66 0.66 1.32 1 2 C0.34 1.67 -0.32 1.34 -1 1 C-0.67 0.67 -0.34 0.34 0 0 Z " fill="#DFE2EA" transform="translate(118,292)"/>
<path d="M0 0 C0.99 0.495 0.99 0.495 2 1 C1.01 1.495 1.01 1.495 0 2 C0 1.34 0 0.68 0 0 Z " fill="#DFE4EA" transform="translate(128,286)"/>
<path d="M0 0 C0.99 0.495 0.99 0.495 2 1 C1.01 1.495 1.01 1.495 0 2 C0 1.34 0 0.68 0 0 Z " fill="#DEE3EB" transform="translate(115,285)"/>
<path d="M0 0 C0.99 0.495 0.99 0.495 2 1 C1.01 1.495 1.01 1.495 0 2 C0 1.34 0 0.68 0 0 Z " fill="#DFE4EA" transform="translate(126,285)"/>
<path d="M0 0 C0.99 0.495 0.99 0.495 2 1 C1.01 1.495 1.01 1.495 0 2 C0 1.34 0 0.68 0 0 Z " fill="#DDE2E8" transform="translate(39,250)"/>
<path d="M0 0 C0.66 0 1.32 0 2 0 C1.67 0.66 1.34 1.32 1 2 C0.67 1.34 0.34 0.68 0 0 Z " fill="#DEE3EB" transform="translate(370,235)"/>
<path d="M0 0 C0.33 0.66 0.66 1.32 1 2 C0.34 1.67 -0.32 1.34 -1 1 C-0.67 0.67 -0.34 0.34 0 0 Z " fill="#DEE1EB" transform="translate(414,226)"/>
<path d="" fill="#DFE2EA" transform="translate(0,0)"/>
<path d="M0 0 C3 1 3 1 3 1 Z " fill="#DFE4EA" transform="translate(67,204)"/>
<path d="M0 0 C0.66 0.66 1.32 1.32 2 2 C1.34 2 0.68 2 0 2 C0 1.34 0 0.68 0 0 Z " fill="#E0E2E8" transform="translate(107,130)"/>
<path d="M0 0 C0.99 0.495 0.99 0.495 2 1 C1.01 1.495 1.01 1.495 0 2 C0 1.34 0 0.68 0 0 Z " fill="#E1E2E8" transform="translate(102,129)"/>
<path d="M0 0 C0.33 0.66 0.66 1.32 1 2 C0.34 1.67 -0.32 1.34 -1 1 C-0.67 0.67 -0.34 0.34 0 0 Z " fill="#DCE2ED" transform="translate(408,119)"/>
<path d="M0 0 C3 1 3 1 3 1 Z " fill="#DCE2ED" transform="translate(440,110)"/>
<path d="M0 0 C3 1 3 1 3 1 Z " fill="#DFE2EA" transform="translate(348,64)"/>
<path d="" fill="#DDE1EC" transform="translate(0,0)"/>
<path d="" fill="#DFE4EA" transform="translate(0,0)"/>
<path d="" fill="#DDE3EB" transform="translate(0,0)"/>
<path d="M0 0 C2 1 2 1 2 1 Z " fill="#DFE1EA" transform="translate(6,279)"/>
<path d="" fill="#DFE2E5" transform="translate(0,0)"/>
<path d="" fill="#DFE5E5" transform="translate(0,0)"/>
<path d="M0 0 C2 1 2 1 2 1 Z " fill="#E0E3E9" transform="translate(234,256)"/>
<path d="" fill="#DDE3EB" transform="translate(0,0)"/>
<path d="M0 0 C2 1 2 1 2 1 Z " fill="#DDE3EB" transform="translate(36,253)"/>
<path d="" fill="#DFE4EA" transform="translate(0,0)"/>
<path d="" fill="#DCE2ED" transform="translate(0,0)"/>
<path d="" fill="#DFE1EA" transform="translate(0,0)"/>
<path d="" fill="#DFDFEA" transform="translate(0,0)"/>
<path d="M0 0 C2 1 2 1 2 1 Z " fill="#E0E3E9" transform="translate(103,198)"/>
<path d="" fill="#DFE4EA" transform="translate(0,0)"/>
<path d="M0 0 C2 1 2 1 2 1 Z " fill="#D9E2ED" transform="translate(382,130)"/>
<path d="M0 0 C2 1 2 1 2 1 Z " fill="#DDE3EB" transform="translate(403,129)"/>
<path d="" fill="#E0E3E9" transform="translate(0,0)"/>
<path d="" fill="#DFE1EA" transform="translate(0,0)"/>
<path d="M0 0 C2 1 2 1 2 1 Z " fill="#DFE1EA" transform="translate(128,114)"/>
<path d="M0 0 C2 1 2 1 2 1 Z " fill="#E0E3E9" transform="translate(115,105)"/>
<path d="" fill="#E2E2E8" transform="translate(0,0)"/>
<path d="M0 0 C2 1 2 1 2 1 Z " fill="#DFE4EA" transform="translate(242,45)"/>
<path d="M0 0 C2 1 2 1 2 1 Z " fill="#DDE3EB" transform="translate(287,24)"/>
<path d="" fill="#DFE4EA" transform="translate(0,0)"/>
<path d="" fill="#DFE4EA" transform="translate(0,0)"/>
<path d="" fill="#DFE4EA" transform="translate(0,0)"/>
<path d="" fill="#DFE4EA" transform="translate(0,0)"/>
<path d="" fill="#DFDFEA" transform="translate(0,0)"/>
<path d="" fill="#DFE4EA" transform="translate(0,0)"/>
<path d="" fill="#E2E2E8" transform="translate(0,0)"/>
<path d="" fill="#DFE4EA" transform="translate(0,0)"/>
<path d="" fill="#DFDFEA" transform="translate(0,0)"/>
<path d="" fill="#DEE3E9" transform="translate(0,0)"/>
<path d="" fill="#DFE4EA" transform="translate(0,0)"/>
<path d="" fill="#E2E2E8" transform="translate(0,0)"/>
<path d="" fill="#DFE4EA" transform="translate(0,0)"/>
<path d="" fill="#DFE4EA" transform="translate(0,0)"/>
<path d="" fill="#DFE4EA" transform="translate(0,0)"/>
<path d="" fill="#DFE4EA" transform="translate(0,0)"/>
<path d="" fill="#DFE4EA" transform="translate(0,0)"/>
<path d="" fill="#DFE4EA" transform="translate(0,0)"/>
<path d="" fill="#DEE3E9" transform="translate(0,0)"/>
<path d="" fill="#DFE4EA" transform="translate(0,0)"/>
<path d="" fill="#DFE5E5" transform="translate(0,0)"/>
<path d="" fill="#DFE5E5" transform="translate(0,0)"/>
<path d="" fill="#DEE3E9" transform="translate(0,0)"/>
<path d="" fill="#DFE4EA" transform="translate(0,0)"/>
<path d="" fill="#DFE4EA" transform="translate(0,0)"/>
<path d="" fill="#DEE3E9" transform="translate(0,0)"/>
<path d="" fill="#DFE4EA" transform="translate(0,0)"/>
<path d="" fill="#DBE1EC" transform="translate(0,0)"/>
<path d="" fill="#DCE2ED" transform="translate(0,0)"/>
<path d="" fill="#DFDFEA" transform="translate(0,0)"/>
<path d="" fill="#DFDFEA" transform="translate(0,0)"/>
<path d="" fill="#DCE2ED" transform="translate(0,0)"/>
<path d="" fill="#DEE3E9" transform="translate(0,0)"/>
<path d="" fill="#DFDFEA" transform="translate(0,0)"/>
<path d="" fill="#DBE1EC" transform="translate(0,0)"/>
<path d="" fill="#E2E2E8" transform="translate(0,0)"/>
<path d="" fill="#DEDEE9" transform="translate(0,0)"/>
<path d="" fill="#DFE4EA" transform="translate(0,0)"/>
<path d="" fill="#DFE4EA" transform="translate(0,0)"/>
<path d="" fill="#DCE2ED" transform="translate(0,0)"/>
<path d="" fill="#DFE5E5" transform="translate(0,0)"/>
<path d="" fill="#DFE5E5" transform="translate(0,0)"/>
<path d="" fill="#DFE5E5" transform="translate(0,0)"/>
<path d="" fill="#DFE5E5" transform="translate(0,0)"/>
<path d="" fill="#DEE3E9" transform="translate(0,0)"/>
<path d="" fill="#DFE4EA" transform="translate(0,0)"/>
<path d="" fill="#DCE2ED" transform="translate(0,0)"/>
<path d="" fill="#DBE1EC" transform="translate(0,0)"/>
<path d="" fill="#DFE4EA" transform="translate(0,0)"/>
</svg>
